<?xml version="1.0" encoding="UTF-8"?>
<svg width="20px" height="20px" viewBox="0 0 20 20" version="1.1" xmlns="http://www.w3.org/2000/svg" xmlns:xlink="http://www.w3.org/1999/xlink">
    <title>关 闭</title>
    <g id="页面-1" stroke="none" stroke-width="1" fill="none" fill-rule="evenodd" opacity="0.5">
        <g id="01-1_首页" transform="translate(-1320.000000, -3951.000000)" fill="#FFFFFF" fill-rule="nonzero">
            <g id="广告" transform="translate(0.000000, 3920.000000)">
                <g id="关-闭" transform="translate(1320.000000, 31.000000)">
                    <path d="M10.0000116,0 C4.48000521,0 0,4.48000521 0,10.0000116 C0,15.5200181 4.48000521,20.0000233 10.0000116,20.0000233 C15.5200181,20.0000233 20.0000233,15.5200181 20.0000233,10.0000116 C20.0000233,4.48000521 15.5200181,0 10.0000116,0 Z M13.3300155,13.9300162 L10.1800118,10.7800125 L7.04000819,13.9300162 L6.25000727,13.1400153 L9.40001094,10.0000116 L6.26000728,6.86000798 L7.0500082,6.07000706 L10.1900119,9.20001071 L13.3200155,6.07000706 L14.1100164,6.86000798 L10.9800128,10.0000116 L14.1300164,13.1500153 L13.3300155,13.9300162 Z" id="形状"></path>
                </g>
            </g>
        </g>
    </g>
</svg>