<?xml version="1.0" encoding="UTF-8"?>
<svg width="154px" height="90px" viewBox="0 0 154 90" version="1.1" xmlns="http://www.w3.org/2000/svg" xmlns:xlink="http://www.w3.org/1999/xlink">
    <title>鼓掌</title>
    <g id="页面-1" stroke="none" stroke-width="1" fill="none" fill-rule="evenodd">
        <g id="01-1_首页" transform="translate(-122.000000, -3906.000000)" fill-rule="nonzero">
            <g id="广告" transform="translate(0.000000, 3920.000000)">
                <g id="鼓掌" transform="translate(122.000000, -14.000000)">
                    <g id="Group">
                        <path d="M47.0803732,84.4909157 L55.7925634,66.7724639 C55.7925634,66.7724639 55.2473768,64.5894036 53.6118169,62.957512 C51.976257,61.3202169 40.8134261,51.7828373 40.8134261,51.7828373 C40.8134261,51.7828373 42.9941725,47.9678855 52.2515493,51.7828373 C52.2515493,51.7828373 41.293838,33.3240904 40.8458134,31.3409639 C40.1710775,28.3311506 42.3140387,29.1146747 44.3490423,30.8600422 C45.9468169,32.2487711 52.6563908,40.6081627 53.0666303,41.2890181 C53.4768697,41.9698735 47.3502676,24.2514217 47.3502676,24.2514217 C47.3502676,24.2514217 50.6159894,22.2088554 58.2432042,38.0144277 L52.1166021,22.7492169 C52.1166021,22.7492169 55.7925634,22.3385422 62.8691937,35.8313675 L58.923338,26.4290783 C58.923338,26.4290783 64.3698063,25.7482229 72.671757,47.2816265 C72.671757,47.2816265 75.9374789,53.1445482 70.4910106,67.4533193 C65.0445423,81.7620904 63.139088,86.1228072 63.139088,86.1228072 C63.139088,86.1228072 54.707588,91.5804578 47.0803732,84.4909157 Z" id="Path" fill="#E16B34"></path>
                        <path d="M75.6729824,37.6091566 C75.6729824,37.6091566 71.8620739,52.0530181 70.9066479,56.6893193 C69.9512218,61.3202169 75.6729824,76.1801566 78.5284648,82.0376747 C81.3893451,87.9005964 89.4214014,93.6230241 95.2727113,84.7610964 L89.5563486,68.6799398 C89.5563486,68.6799398 103.715007,40.8783434 103.445113,35.8367711 C103.175218,30.7951988 97.5938028,43.742259 97.1835634,43.8773494 C96.7733239,44.0124398 99.499257,34.1994759 99.2239648,30.7951988 C98.9540704,27.3855181 98.1335915,28.8877229 98.1335915,28.8877229 C98.1335915,28.8877229 98.4034859,26.4344819 97.0432183,26.8451566 C95.6829507,27.2558313 88.6009225,35.8421747 85.0653063,41.9752771 L91.1919085,23.5759699 C91.1919085,23.5759699 89.4537887,22.8951145 87.1272993,26.2993916 C84.795412,29.7036687 80.4393169,36.7932108 79.7591831,40.883747 C79.0790493,44.9742831 77.9886761,48.6541446 77.9886761,48.6541446 C77.9886761,48.6541446 80.2989718,38.5655964 75.6729824,37.6091566 Z" id="Path" fill="#FFA880"></path>
                        <path d="M9.98069366,36.5122229 L0.14034507,36.5122229 L6.37490493,25.6779759 L9.98069366,36.5122229 Z M1.99182042,35.4369036 L8.49087676,35.4369036 L6.11040845,28.2825181 L1.99182042,35.4369036 Z" id="Shape" fill="#F65B15"></path>
                        <polygon id="Path" fill="#F65B15" points="38.7244437 76.861012 38.0119225 76.861012 38.0119225 69.9714036 31.3833169 71.7545964 31.1943908 71.0629337 38.7244437 69.0365783"></polygon>
                        <polygon id="Path" fill="#FFE2D5" points="25.2891021 58.024012 24.7601092 57.5430904 32.5924437 48.9189217 24.8842606 45.5740843 25.1703486 44.9148434 33.7961725 48.6595482"></polygon>
                        <polygon id="Path" fill="#FFE2D5" points="125.995729 34.8941205 117.79094 34.8941205 121.898732 27.5452048 122.524887 27.8964398 119.010863 34.1754398 125.995729 34.1754398"></polygon>
                        <polygon id="Path" fill="#F65B15" points="116.561979 58.0618373 108.28162 51.4856386 118.224528 44.9472651 118.613176 45.5416627 109.496144 51.5396747 117.010004 57.4998614"></polygon>
                        <path d="M5.76494366,88.873247 L4.28592254,79.9951084 L12.2532042,78.4766928 L14.2018415,87.387253 L5.76494366,88.873247 Z M5.10640141,80.5678916 L6.35331338,88.0410904 L13.3435775,86.8036627 L11.7026197,79.3034458 L5.10640141,80.5678916 Z" id="Shape" fill="#FFE2D5"></path>
                        <path d="M144.636391,30.806006 L143.15737,21.9278675 L151.124651,20.4094518 L153.073289,29.320012 L144.636391,30.806006 Z M143.977849,22.495247 L145.224761,29.9684458 L152.215025,28.7310181 L150.574067,21.2308012 L143.977849,22.495247 Z" id="Shape" fill="#F65B15"></path>
                        <path d="M65.1363063,61.893 L64.4237852,61.8497711 C64.6397007,58.2563675 63.3873908,55.5329458 60.7046408,53.7551566 C58.685831,52.4204639 56.5914507,52.1448795 56.5698592,52.1394759 L56.6562254,51.4316024 C56.7479894,51.4424096 58.9449296,51.7288012 61.0986866,53.1553554 C63.1013028,54.4846446 65.4277923,57.0729759 65.1363063,61.893 Z" id="Path" fill="#FFA880"></path>
                        <polygon id="Path" fill="#F65B15" points="116.540387 73.2513976 122.510451 77.6553434 117.717127 84.5503554 111.477169 79.8113855"></polygon>
                        <path d="M38.3681831,10.6343133 C35.4479261,10.6343133 33.0674577,8.25672289 33.0674577,5.32796386 C33.0674577,2.39920482 35.4425282,0.0216144578 38.3681831,0.0216144578 C41.293838,0.0216144578 43.6689085,2.39920482 43.6689085,5.32796386 C43.6689085,8.25672289 41.293838,10.6343133 38.3681831,10.6343133 Z M38.3681831,0.740295181 C35.8419718,0.740295181 33.7853768,2.79907229 33.7853768,5.32796386 C33.7853768,7.85685542 35.8419718,9.91563253 38.3681831,9.91563253 C40.8943944,9.91563253 42.9509894,7.85685542 42.9509894,5.32796386 C42.9509894,2.79907229 40.8943944,0.740295181 38.3681831,0.740295181 Z" id="Shape" fill="#493896"></path>
                        <path d="M137.15856,64.4194699 C135.03719,64.4194699 133.309866,62.6903133 133.309866,60.5666928 C133.309866,58.4430723 135.03719,56.7139157 137.15856,56.7139157 C139.27993,56.7139157 141.007254,58.4430723 141.007254,60.5666928 C141.001856,62.6903133 139.27993,64.4194699 137.15856,64.4194699 Z M137.15856,57.4325964 C135.431236,57.4325964 134.027785,58.8375361 134.027785,60.5666928 C134.027785,62.2958494 135.431236,63.7007892 137.15856,63.7007892 C138.885884,63.7007892 140.289335,62.2958494 140.289335,60.5666928 C140.289335,58.8375361 138.885884,57.4325964 137.15856,57.4325964 Z" id="Shape" fill="#FFE2D5"></path>
                        <path d="M11.3625528,63.6815964 C9.2411831,63.6815964 7.51385915,61.9524398 7.51385915,59.8288193 C7.51385915,57.7051988 9.2411831,55.9760422 11.3625528,55.9760422 C13.4839225,55.9760422 15.2112465,57.7051988 15.2112465,59.8288193 C15.2112465,61.9524398 13.4839225,63.6815964 11.3625528,63.6815964 Z M11.3625528,56.6947229 C9.63522887,56.6947229 8.23177817,58.0996627 8.23177817,59.8288193 C8.23177817,61.5579759 9.63522887,62.9629157 11.3625528,62.9629157 C13.0898768,62.9629157 14.4933275,61.5579759 14.4933275,59.8288193 C14.4933275,58.0996627 13.0898768,56.6947229 11.3625528,56.6947229 Z" id="Shape" fill="#FFE2D5"></path>
                    </g>
                </g>
            </g>
        </g>
    </g>
</svg>