<?xml version="1.0" encoding="UTF-8"?>
<svg width="18px" height="15px" viewBox="0 0 18 15" version="1.1" xmlns="http://www.w3.org/2000/svg" xmlns:xlink="http://www.w3.org/1999/xlink">
    <title>qiye</title>
    <g id="页面-1" stroke="none" stroke-width="1" fill="none" fill-rule="evenodd">
        <g id="首页-已登录" transform="translate(-1153.000000, -4095.000000)" fill="#ADADAD" fill-rule="nonzero">
            <g id="qiye" transform="translate(1153.000000, 4095.000000)">
                <g id="形状-2">
                    <path d="M14.9587873,13.4496959 L16.9463103,13.4496959 L16.9463103,13.4496959 C17.3120411,13.449748 17.6084281,13.7377869 17.6084281,14.0930503 C17.6084281,14.448239 17.3119657,14.7362153 16.9463103,14.7362153 L1.05315462,14.7362153 L1.05315463,14.7362153 C0.687423825,14.7362153 0.391036796,14.4481243 0.391036796,14.0928609 C0.391036796,13.7376722 0.68749923,13.449747 1.05315463,13.4496959 L2.78110084,13.4496959 L2.78110083,13.4496955 C2.78066711,13.4369783 2.78051992,13.4242534 2.78065935,13.4115299 L2.78065935,1.50693832 L2.78065935,1.50693845 C2.78065927,1.03325538 3.17597152,0.649258812 3.66361307,0.649258812 L9.43371536,0.649258812 L9.43371532,0.649258812 C9.92135687,0.649258812 10.316669,1.03325538 10.316669,1.50693845 L10.316669,5.066316 L14.3870805,6.55010402 L14.3870805,6.55010401 C14.7317734,6.67581713 14.9599748,6.99610279 14.959676,7.35375008 L14.959676,13.4119695 C14.959676,13.4248347 14.959676,13.4377 14.958793,13.4501363 L14.9587873,13.4496959 Z M5.02643641,2.72869348 L5.02643643,2.72869348 C4.66070562,2.72874554 4.36426453,3.01678454 4.36431859,3.37204787 C4.36437218,3.72723658 4.66078102,4.0151618 5.02643643,4.01521294 L7.67530044,4.01521294 L7.67530045,4.01521294 C8.04103125,4.01516086 8.33747235,3.72712188 8.33741828,3.37185854 C8.33736468,3.01666983 8.04095585,2.72874461 7.67530045,2.72869348 L5.02643643,2.72869348 L5.02643641,2.72869348 Z M5.02643641,5.30173516 L5.02643643,5.30173516 C4.66070562,5.30178722 4.36426453,5.58982622 4.36431859,5.94508955 C4.36437218,6.30027826 4.66078102,6.58820348 5.02643643,6.58825462 L7.67530044,6.58825462 L7.67530045,6.58825462 C8.04103125,6.58820254 8.33747235,6.30016356 8.33741828,5.94490022 C8.33736468,5.58971151 8.04095585,5.30178629 7.67530045,5.30173516 L5.02643643,5.30173516 L5.02643641,5.30173516 Z M5.02643641,7.87477684 L5.02643643,7.87477684 C4.66070562,7.8748289 4.36426453,8.1628679 4.36431859,8.51813124 C4.36437218,8.87331994 4.66078102,9.16124516 5.02643643,9.1612963 L7.67530044,9.1612963 L7.67530045,9.1612963 C8.04103125,9.16124422 8.33747235,8.87320524 8.33741828,8.5179419 C8.33736468,8.16275319 8.04095585,7.87482797 7.67530045,7.87477684 L5.02643643,7.87477684 L5.02643641,7.87477684 Z" id="形状"></path>
                </g>
            </g>
        </g>
    </g>
</svg>