<?xml version="1.0" encoding="UTF-8"?>
<svg width="32px" height="32px" viewBox="0 0 32 32" version="1.1" xmlns="http://www.w3.org/2000/svg" xmlns:xlink="http://www.w3.org/1999/xlink">
    <!-- Generator: Sketch 61.2 (89653) - https://sketch.com -->
    <title>编组4</title>
    <desc>Created with Sketch.</desc>
    <defs>
        <polygon id="path-1" points="0 0.7462 27.65532 0.7462 27.65532 57.4 0 57.4"></polygon>
        <polygon id="path-3" points="0.317237702 0.0756 25.84484 0.0756 25.84484 25.56918 0.317237702 25.56918"></polygon>
        <polygon id="path-5" points="0.81914 0.44716 42.077 0.44716 42.077 42.37716 0.81914 42.37716"></polygon>
        <polygon id="path-7" points="0 68.92482 155.477 68.92482 155.477 0.40042 0 0.40042"></polygon>
    </defs>
    <g id="页面-1" stroke="none" stroke-width="1" fill="none" fill-rule="evenodd">
        <g id="首页-已登录" transform="translate(-255.000000, -3166.000000)">
            <g id="footer" transform="translate(0.000000, 2954.000000)">
                <g>
                    <rect id="矩形" fill="#252222" x="0" y="0" width="1440" height="301"></rect>
                    <g id="logo" transform="translate(101.000000, 45.000000)">
                        <g id="编组" transform="translate(0.000000, 11.524820)">
                            <mask id="mask-2" fill="white">
                                <use xlink:href="#path-1"></use>
                            </mask>
                            <g id="Clip-2"></g>
                            <path d="M2.81092,57.4 L-0.00028,52.9662 L22.23732,38.8612 L22.40532,0.7462 L27.65532,0.77 L27.48032,40.32 C27.47612,41.2146 27.01692,42.0462 26.26092,42.525 L2.81092,57.4 Z" id="Fill-1" fill="#FFFFFF" mask="url(#mask-2)"></path>
                        </g>
                        <g id="编组" transform="translate(32.200000, 0.324820)">
                            <mask id="mask-4" fill="white">
                                <use xlink:href="#path-3"></use>
                            </mask>
                            <g id="Clip-4"></g>
                            <path d="M2.94224,25.56918 C2.60204,25.56918 2.26044,25.50338 1.93424,25.36758 C0.95424,24.96018 0.31584,24.00118 0.317237702,22.93998 L0.33544,12.22578 L5.58544,12.23418 L5.57844,16.60498 L22.13764,0.07518 L25.84484,3.79078 L4.79584,24.80198 C4.29464,25.30318 3.62404,25.56918 2.94224,25.56918" id="Fill-3" fill="#0FC700" mask="url(#mask-4)"></path>
                        </g>
                        <path d="M54.3375,62.99806 L37.7783,46.46826 L37.7853,50.83906 L32.5353,50.84746 L32.5170977,40.13326 C32.5157,39.07206 33.1541,38.11306 34.1341,37.70566 C35.1141,37.29826 36.2439,37.52086 36.9957,38.27126 L58.0447,59.28246 L54.3375,62.99806 Z" id="Fill-5" fill="#FFFFFF"></path>
                        <path d="M3.3824,55.8764 L0.8288,51.29 L12.2556,44.9298 L12.2556,12.2832 L17.5056,12.2832 L17.5056,46.474 C17.5056,47.426 16.9904,48.3038 16.1574,48.7672 L3.3824,55.8764 Z" id="Fill-7" fill="#FFFFFF"></path>
                        <path d="M48.68556,44.2067 L38.76096,33.8173 C37.77536,32.7869 37.79496,31.1573 38.80156,30.1479 L48.72616,20.2247 L52.44036,23.9361 L44.33016,32.0463 L52.48096,40.5807 L48.68556,44.2067 Z" id="Fill-9" fill="#FFFFFF"></path>
                        <path d="M104.67464,27.35896 L101.17184,27.35896 C99.87824,27.35896 98.92904,26.15216 99.24684,24.89916 C99.89084,22.37216 100.60064,19.17876 101.35944,15.35396 L93.60904,15.35396 L93.60904,18.98276 C93.60904,19.74436 93.56424,20.50456 93.56424,21.31096 L93.56424,21.31236 C94.63944,27.35896 96.92424,32.64536 100.41864,37.21496 C102.43324,34.25816 103.86824,30.98776 104.67464,27.35896 L104.67464,27.35896 Z M84.46984,15.35396 L84.46984,10.87396 L104.25744,10.87396 C105.35224,10.87396 106.24124,11.76296 106.24124,12.85916 L106.24124,13.87556 C105.52444,17.45956 104.80904,20.59416 104.09224,23.28216 L107.35004,23.28216 C108.44624,23.28216 109.33244,24.17116 109.33244,25.26736 L109.33244,25.88056 C108.39164,31.83896 106.51144,36.85656 103.68904,40.93196 C105.88284,43.08236 108.43784,45.05356 111.34984,46.80076 L108.34684,50.83276 C105.43624,48.95116 102.88264,46.84556 100.73224,44.51596 C98.13384,47.15916 94.99784,49.30956 91.41384,50.96716 L88.81684,46.71116 C92.26644,45.00876 95.17704,42.99276 97.55144,40.61976 C95.53684,37.84356 93.92544,34.79996 92.71584,31.48896 L92.71164,31.48896 C91.33964,40.50496 88.41224,47.32296 83.98824,52.00176 C81.74264,49.96196 82.70164,50.83276 80.45604,48.79296 L81.46964,47.56236 C86.39624,41.60396 88.90504,32.06296 88.99604,18.98276 L88.99604,15.35396 L84.46984,15.35396 Z M80.88724,50.83276 L76.18324,50.83276 L76.18324,30.62936 C74.88404,34.39256 73.27124,37.84216 71.39104,40.97816 L69.33024,35.78136 C72.28564,31.83896 74.48224,27.35896 75.82624,22.29656 L70.18004,22.29656 L70.18004,17.77316 L76.18324,17.77316 L76.18324,9.52996 L80.88724,9.52996 L80.88724,17.77316 L85.72564,17.77316 L85.72564,22.29656 L80.88724,22.29656 L80.88724,24.22296 C82.85844,26.19416 84.78484,28.29976 86.71124,30.58456 L83.97844,34.70616 C82.81364,32.73496 81.78184,31.03256 80.88724,29.64376 L80.88724,50.83276 Z" id="Fill-11" fill="#FFFFFF"></path>
                        <g id="编组" transform="translate(113.400000, 8.724820)">
                            <mask id="mask-6" fill="white">
                                <use xlink:href="#path-5"></use>
                            </mask>
                            <g id="Clip-14"></g>
                            <path d="M28.45794,15.22976 L16.27374,15.22976 C18.20014,16.66336 20.26094,17.87296 22.45614,18.94816 C24.87394,17.78336 26.89134,16.57376 28.45794,15.22976 L28.45794,15.22976 Z M30.78754,36.55316 L30.78754,33.78816 C30.78754,32.69336 29.89854,31.80436 28.80374,31.80436 L13.27214,31.80436 L13.27214,36.55316 L30.78754,36.55316 Z M35.35714,42.37716 L30.78754,42.37716 L30.78754,40.76436 L13.27214,40.76436 L13.27214,42.37716 L8.74874,42.37716 L8.74874,27.63796 L31.38954,27.63796 C33.58054,27.63796 35.35714,29.41456 35.35714,31.60696 L35.35714,42.37716 Z M40.41954,12.94496 L35.67074,12.94496 L35.67074,9.77816 C35.67074,8.68196 34.78314,7.79296 33.68554,7.79296 L9.02734,7.79296 L9.02734,12.94496 L4.27854,12.94496 L4.27854,3.62656 L18.73774,3.62656 C18.28974,2.77536 17.84174,1.97036 17.34894,1.25356 L22.54434,0.44716 C22.99374,1.43276 23.39694,2.46176 23.80014,3.62656 L36.45054,3.62656 C38.64154,3.62656 40.41954,5.40316 40.41954,7.59556 L40.41954,12.94496 Z M19.76814,9.13696 C19.27394,9.89856 18.78254,10.61536 18.28974,11.28736 L32.11754,11.28736 C33.21374,11.28736 34.10274,12.17636 34.10274,13.27256 L34.10274,15.00576 C32.57954,17.20096 30.38434,19.17216 27.42894,20.96416 C31.81794,22.39776 36.70114,23.29376 42.07714,23.56256 L41.00194,27.77236 C33.92354,27.36916 27.69634,25.93556 22.32174,23.47296 C17.12494,25.62196 10.58414,27.32436 2.61114,28.62356 L0.81914,24.45716 C7.40474,23.51636 12.95994,22.30816 17.48334,20.87456 C15.78094,19.79936 14.21294,18.63456 12.77934,17.38016 C11.12174,18.76896 9.41934,20.02336 7.67214,21.14336 L4.71674,17.55936 C8.70394,15.31936 12.19834,12.18336 15.19854,8.10656 L19.76814,9.13696 Z" id="Fill-13" fill="#FFFFFF" mask="url(#mask-6)"></path>
                        </g>
                        <path d="M76.17008,54.84012 L79.07228,54.84012 L79.07228,61.98292 C79.07228,65.36532 77.42588,66.32712 75.04588,66.32712 C74.46348,66.32712 73.74808,66.24312 73.27488,66.08072 L73.56328,63.72172 C73.88668,63.81552 74.28988,63.88272 74.72528,63.88272 C75.56108,63.88272 76.17008,63.51592 76.17008,62.02912 L76.17008,54.84012 Z" id="Fill-15" fill="#FFFFFF"></path>
                        <mask id="mask-8" fill="white">
                            <use xlink:href="#path-7"></use>
                        </mask>
                        <g id="Clip-18"></g>
                        <polygon id="Fill-17" fill="#FFFFFF" mask="url(#mask-8)" points="81.0082 66.15702 83.9104 66.15702 83.9104 54.84082 81.0082 54.84082"></polygon>
                        <path d="M85.94544,54.84012 L88.82384,54.84012 L88.82384,59.69532 L88.86444,59.69532 C89.06744,59.25292 89.29004,58.81052 89.51964,58.36952 L91.41384,54.84012 L94.87604,54.84012 L91.63084,59.70512 L94.98104,66.15632 L91.66724,66.15632 L89.59244,61.63992 L88.82384,62.70812 L88.82384,66.15632 L85.94544,66.15632 L85.94544,54.84012 Z" id="Fill-19" fill="#FFFFFF" mask="url(#mask-8)"></path>
                        <polygon id="Fill-20" fill="#FFFFFF" mask="url(#mask-8)" points="102.44878 61.52218 98.86058 61.52218 98.86058 63.74818 102.87438 63.74818 102.87438 66.15758 95.95838 66.15758 95.95838 54.83998 102.65318 54.83998 102.65318 57.24798 98.86058 57.24798 98.86058 59.16178 102.44878 59.16178"></polygon>
                        <path d="M107.40352,59.76532 L108.05732,59.76532 C109.10872,59.76532 109.69532,59.15772 109.69532,58.31772 C109.69532,57.47632 109.20812,56.95272 108.26172,56.93592 C107.81092,56.93592 107.53932,56.96252 107.40352,57.00312 L107.40352,59.76532 Z M104.52652,54.99972 C105.35252,54.86532 106.53972,54.76312 107.87672,54.76312 C109.46432,54.76312 110.69072,54.97592 111.52372,55.63672 C112.25452,56.22192 112.58772,57.01292 112.58772,58.09092 C112.58772,59.40972 111.68192,60.45552 110.71592,60.84192 L110.71592,60.89372 C111.46352,61.22132 111.85972,61.92692 112.12292,62.94752 C112.42112,64.08992 112.78372,65.71952 113.00212,66.15632 L110.01732,66.15632 C109.85632,65.83712 109.57072,64.86412 109.29632,63.53132 C109.03032,62.17892 108.64952,61.88632 107.82352,61.88632 L107.40352,61.88632 L107.40352,66.15632 L104.52652,66.15632 L104.52652,54.99972 Z" id="Fill-21" fill="#FFFFFF" mask="url(#mask-8)"></path>
                        <path d="M114.08362,64.59364 C114.08362,63.57584 114.79762,62.85344 115.73702,62.85344 C116.68482,62.85344 117.37502,63.53664 117.38202,64.59364 C117.38202,65.61844 116.71702,66.32684 115.73002,66.32684 C114.78082,66.32684 114.08362,65.61844 114.08362,64.59364" id="Fill-22" fill="#FFFFFF" mask="url(#mask-8)"></path>
                        <path d="M126.49084,65.9088 C126.10164,66.0964 125.16364,66.3106 123.97784,66.3106 C120.05504,66.3106 118.36524,63.6744 118.36524,60.684 C118.36524,56.6338 121.14424,54.6864 124.21724,54.6864 C125.37504,54.6864 126.28224,54.9076 126.67564,55.1302 L126.14084,57.4528 C125.72084,57.275 125.14544,57.1028 124.38244,57.1028 C122.78084,57.1028 121.42844,58.1346 121.42844,60.5132 C121.42844,62.6594 122.56244,63.8606 124.41044,63.8606 C125.02084,63.8606 125.72224,63.7402 126.13244,63.5946 L126.49084,65.9088 Z" id="Fill-23" fill="#FFFFFF" mask="url(#mask-8)"></path>
                        <path d="M130.10704,60.50704 C130.10704,62.79744 130.90224,63.97064 132.11324,63.97064 C133.35504,63.97064 134.05224,62.57484 134.05224,60.45104 C134.05224,58.50364 133.36064,57.02664 132.09644,57.02664 C130.90224,57.02664 130.10704,58.30484 130.10704,60.50704 M137.10984,60.34324 C137.10984,64.17644 135.11484,66.32684 131.98584,66.32684 C128.67344,66.32684 127.05084,63.57724 127.05084,60.53504 C127.05084,57.38784 128.91424,54.67044 132.16364,54.67044 C135.63144,54.67044 137.10984,57.57684 137.10984,60.34324" id="Fill-24" fill="#FFFFFF" mask="url(#mask-8)"></path>
                        <path d="M147.43344,62.25368 C147.39144,61.08328 147.34944,59.61608 147.35784,58.01868 L147.31584,58.01868 C147.01624,59.43128 146.59064,61.03568 146.29104,62.11228 L145.26344,65.92168 L143.03884,65.92168 L142.14424,62.12068 C141.89504,61.06228 141.56604,59.46628 141.33644,58.01868 L141.30144,58.01868 C141.24264,59.49288 141.17684,61.08328 141.12644,62.25368 L140.95004,66.15688 L138.33624,66.15688 L139.08524,54.84068 L142.75744,54.84068 L143.49664,58.06068 C143.80044,59.36548 144.12244,60.80748 144.34224,62.16408 L144.39264,62.16408 C144.65864,60.82428 144.99884,59.29688 145.31104,58.04388 L146.12164,54.84068 L149.72384,54.84068 L150.33144,66.15688 L147.58184,66.15688 L147.43344,62.25368 Z" id="Fill-25" fill="#FFFFFF" mask="url(#mask-8)"></path>
                    </g>
                    <text id="面向未来的技术人才教育" font-family="PingFangSC-Regular, PingFang SC" font-size="12" font-weight="normal" letter-spacing="2.7" fill="#BBBBBB">
                        <tspan x="101" y="142">面向未来的技术人才教育</tspan>
                    </text>
                    <text id="课程" font-family="PingFangSC-Semibold, PingFang SC" font-size="16" font-weight="500" fill="#FFFFFF">
                        <tspan x="836" y="62">课程</tspan>
                    </text>
                    <text id="客服电话" font-family="PingFangSC-Semibold, PingFang SC" font-size="16" font-weight="500" fill="#FFFFFF">
                        <tspan x="427" y="62">客服电话</tspan>
                    </text>
                    <text id="010-86468343" font-family="PingFangSC-Regular, PingFang SC" font-size="20" font-weight="normal" fill="#D5D5D5">
                        <tspan x="427" y="94">010-86468343</tspan>
                    </text>
                    <rect id="矩形" fill="#333333" x="427" y="112" width="255" height="43"></rect>
                    <text id="联系我们" font-family="PingFangSC-Regular, PingFang SC" font-size="12" font-weight="normal" fill="#FFFFFF">
                        <tspan x="531" y="138">联系我们</tspan>
                    </text>
                    <text id="职业" font-family="PingFangSC-Semibold, PingFang SC" font-size="16" font-weight="500" fill="#FFFFFF">
                        <tspan x="941" y="62">职业</tspan>
                    </text>
                    <text id="关于" font-family="PingFangSC-Semibold, PingFang SC" font-size="16" font-weight="500" fill="#FFFFFF">
                        <tspan x="1046" y="62">关于</tspan>
                    </text>
                    <text id="合作" font-family="PingFangSC-Semibold, PingFang SC" font-size="16" font-weight="500" fill="#FFFFFF">
                        <tspan x="1152" y="62">合作</tspan>
                    </text>
                    <text id="支持" font-family="PingFangSC-Semibold, PingFang SC" font-size="16" font-weight="500" fill="#FFFFFF">
                        <tspan x="1256" y="62">支持</tspan>
                    </text>
                    <text id="选课推荐" font-family="PingFangSC-Regular, PingFang SC" font-size="14" font-weight="normal" fill="#D5D5D5">
                        <tspan x="836" y="94">选课推荐</tspan>
                    </text>
                    <text id="职业方向" font-family="PingFangSC-Regular, PingFang SC" font-size="14" font-weight="normal" fill="#D5D5D5">
                        <tspan x="941" y="94">职业方向</tspan>
                    </text>
                    <text id="关于极客" font-family="PingFangSC-Regular, PingFang SC" font-size="14" font-weight="normal" fill="#D5D5D5">
                        <tspan x="1046" y="94">关于极客</tspan>
                    </text>
                    <text id="企业合作" font-family="PingFangSC-Regular, PingFang SC" font-size="14" font-weight="normal" fill="#D5D5D5">
                        <tspan x="1152" y="94">企业合作</tspan>
                    </text>
                    <text id="常见问题" font-family="PingFangSC-Regular, PingFang SC" font-size="14" font-weight="normal" fill="#D5D5D5">
                        <tspan x="1256" y="94">常见问题</tspan>
                    </text>
                    <text id="实战营" font-family="PingFangSC-Regular, PingFang SC" font-size="14" font-weight="normal" fill="#D5D5D5">
                        <tspan x="836" y="126">实战营</tspan>
                    </text>
                    <text id="个性定制" font-family="PingFangSC-Regular, PingFang SC" font-size="14" font-weight="normal" fill="#D5D5D5">
                        <tspan x="941" y="126">个性定制</tspan>
                    </text>
                    <text id="加入我们" font-family="PingFangSC-Regular, PingFang SC" font-size="14" font-weight="normal" fill="#D5D5D5">
                        <tspan x="1046" y="126">加入我们</tspan>
                    </text>
                    <text id="讲师合作" font-family="PingFangSC-Regular, PingFang SC" font-size="14" font-weight="normal" fill="#D5D5D5">
                        <tspan x="1152" y="126">讲师合作</tspan>
                    </text>
                    <text id="帮助中心" font-family="PingFangSC-Regular, PingFang SC" font-size="14" font-weight="normal" fill="#D5D5D5">
                        <tspan x="1256" y="126">帮助中心</tspan>
                    </text>
                    <text id="意见反馈" font-family="PingFangSC-Regular, PingFang SC" font-size="14" font-weight="normal" fill="#D5D5D5">
                        <tspan x="1256" y="156">意见反馈</tspan>
                    </text>
                    <text id="视频课" font-family="PingFangSC-Regular, PingFang SC" font-size="14" font-weight="normal" fill="#D5D5D5">
                        <tspan x="836" y="158">视频课</tspan>
                    </text>
                    <text id="Copyright-©-2013-201" font-family="PingFangSC-Light, PingFang SC" font-size="12" font-weight="300" fill="#8E8E8E">
                        <tspan x="777" y="232">Copyright © 2013-2018 jiker.com All Rights Reserved. 京ICP备11018032号 京公网安备11010802013056</tspan>
                    </text>
                    <line x1="100" y1="196" x2="1340" y2="196" id="直线-3" stroke="#414141" stroke-linecap="square"></line>
                    <g id="编组-8" transform="translate(100.000000, 212.000000)">
                        <rect id="矩形" x="0" y="0" width="32" height="32"></rect>
                        <g id="编组" transform="translate(1.000000, 5.000000)" fill="#A0A0A0" fill-rule="nonzero">
                            <path d="M18.9938683,7.74055677 C19.2924553,7.74055677 19.5835777,7.75405213 19.8802986,7.78297078 C19.2103439,3.38733705 15.03759,0 9.9877366,0 C4.47134098,0 0,4.04282629 0,9.02840033 C0,11.8161575 1.39962677,14.3089445 3.59424154,15.9669467 C3.31431618,17.4167347 2.96534258,19.3234372 3.01572914,19.2598162 C3.09224207,19.2308976 5.02186084,18.1242775 6.2348707,17.3993835 C7.39376166,17.8215957 8.65902426,18.0587286 9.9877366,18.0587286 C10.1276993,18.0587286 10.2639296,18.0548728 10.4038923,18.0510169 C10.2490003,17.4283022 10.168755,16.7901641 10.168755,16.1231074 C10.1668888,11.4941966 14.1175686,7.74055677 18.9938683,7.74055677 Z M13.9104239,4.79278309 C14.6009064,4.79278309 15.158891,5.36922804 15.158891,6.08062666 C15.158891,6.79395319 14.5990403,7.37232605 13.9104239,7.37232605 C13.2218075,7.37232605 12.6619568,6.79202528 12.6619568,6.08062666 C12.6619568,5.36922804 13.2218075,4.79278309 13.9104239,4.79278309 Z M6.24233538,7.37232605 C5.55185284,7.37232605 4.99573447,6.79202528 4.99573447,6.08062666 C4.99573447,5.36922804 5.55371901,4.79278309 6.24233538,4.79278309 C6.93095175,4.79278309 7.49080245,5.36922804 7.49080245,6.08062666 C7.49080245,6.79395319 6.93095175,7.37232605 6.24233538,7.37232605 L6.24233538,7.37232605 Z M28,15.8454884 C28,11.6734922 24.168755,8.29193889 19.4417489,8.29193889 C14.7128766,8.29193889 10.8797654,11.6754201 10.8797654,15.8454884 C10.8797654,20.0174847 14.7128766,23.4028938 19.4417489,23.4028938 C20.7275393,23.4028938 21.9461477,23.1503376 23.0434551,22.7011347 C24.1724873,23.3238495 25.4022927,23.9793387 25.4638763,23.9986178 C25.5067982,24.0468156 25.2641962,22.8264488 25.0010664,21.5945147 C26.8336444,20.202564 28,18.1474124 28,15.8454884 Z M16.230072,14.1874862 C15.5395894,14.1874862 14.9797387,13.6110413 14.9797387,12.8996427 C14.9797387,12.1882441 15.5395894,11.6079433 16.230072,11.6079433 C16.9186883,11.6079433 17.4766729,12.1882441 17.4766729,12.8996427 C17.4766729,13.6110413 16.9186883,14.1874862 16.230072,14.1874862 Z M22.4705412,14.1874862 C21.7819248,14.1874862 21.2202079,13.6110413 21.2202079,12.8996427 C21.2202079,12.1882441 21.7819248,11.6079433 22.4705412,11.6079433 C23.1591576,11.6079433 23.7208744,12.1882441 23.7208744,12.8996427 C23.7208744,13.6110413 23.1591576,14.1874862 22.4705412,14.1874862 Z" id="形状"></path>
                        </g>
                    </g>
                    <g id="编组-8备份" transform="translate(152.000000, 212.000000)">
                        <rect id="矩形" x="0" y="0" width="32" height="32"></rect>
                        <g id="编组" transform="translate(1.000000, 4.000000)" fill="#A0A0A0" fill-rule="nonzero">
                            <path d="M25.9364801,2.38304221 C23.096767,-0.366030348 18.9281477,0.0183575577 18.9281477,0.0183575577 C18.415588,0.0287916282 18,0.456621329 18,0.977855884 L18,1.44233856 C18,1.96186757 18.4136638,2.35876298 18.9413183,2.3496666 C18.9413183,2.3496666 22.9417716,1.92163624 24.6457919,4.4255085 C26.3495468,6.92938077 25.6134182,10.0712688 25.6134182,10.0712688 C25.5352239,10.5841427 25.8883094,11 26.4090634,11 L26.8065377,11 C27.3241732,11 27.8027944,10.5854804 27.8585622,10.0678242 C27.8586285,10.0678242 28.77616,5.13201445 25.9364801,2.38304221 L25.9364801,2.38304221 Z" id="路径"></path>
                            <path d="M22.6218806,10 L23.1619418,10 C23.4916028,10 23.8111477,9.75971821 23.8643999,9.45094089 C23.8643999,9.45094089 24.5009131,7.14697562 23.0158323,5.8841722 C21.5305924,4.62130962 19.5897187,5.08196065 19.5897187,5.08196065 C19.2641932,5.12817664 19,5.41529579 19,5.72052257 L19,5.93722296 C19,6.24384038 19.263716,6.47379606 19.6042247,6.46459429 C19.6042247,6.46459429 21.2332836,6.25845673 22.0256406,7.14700519 C22.8178703,8.0357608 22.1976127,9.47298373 22.1976127,9.47298373 C22.1024014,9.76412679 22.2966096,10 22.6218806,10 L22.6218806,10 Z" id="路径"></path>
                            <path d="M10.1884397,12.1023986 C7.46407187,12.5967511 5.61892552,14.7424956 6.06706075,16.8951998 C6.51535803,19.0477224 9.08712777,20.3920089 11.8113335,19.8976565 C14.5356365,19.4031527 16.3812042,17.2573477 15.9329069,15.1046738 C15.4847393,12.9521814 12.9129695,11.6078949 10.1884397,12.1023986 L10.1884397,12.1023986 Z M9.9649879,17.7635922 C9.12654136,18.128524 8.20541054,17.9412468 7.90763691,17.3450705 C7.60983088,16.7486521 8.04808027,15.9694955 8.88652678,15.6045637 C9.72500572,15.2394201 10.6462014,15.4269091 10.9441047,16.0230854 C11.2414894,16.6194736 10.8036613,17.3986604 9.9649879,17.7635922 L9.9649879,17.7635922 Z M11.8876649,15.9521265 C11.4253979,15.9521265 11.0504501,15.5965752 11.0504501,15.1580216 C11.0504501,14.7194982 11.425333,14.3638259 11.8876649,14.3638259 C12.3505802,14.3638259 12.7255605,14.7195285 12.7255605,15.1580216 C12.725528,15.5966357 12.3505154,15.9521265 11.8876649,15.9521265 L11.8876649,15.9521265 Z" id="形状"></path>
                            <path d="M20.2779077,11.6526192 C20.2779077,11.4041847 22.6291485,9.16805404 20.2779077,7.77653156 C17.9266044,6.38516624 13.625374,8.50061616 13.7542661,8.27343202 C15.6042008,5.02542503 12.9606461,4 11.612862,4 C8.3995048,4 0,11.1939443 0,15.7501069 C0,20.3063009 5.60847955,24 12.5267105,24 C19.4450978,24 25,20.3062695 25,15.7501069 C25,11.9010537 20.2779077,11.9010537 20.2779077,11.6526192 L20.2779077,11.6526192 Z M12.8650952,21.472714 C8.4454193,22.0970539 4.52970803,20.2257319 4.11960534,17.2931484 C3.70950265,14.3603448 6.96014196,11.4768007 11.3800368,10.8524608 C15.8004634,10.2281209 19.7156429,12.0993801 20.125902,15.0321837 C20.5361298,17.9647986 17.2854905,20.8483113 12.8650952,21.472714 L12.8650952,21.472714 Z" id="形状"></path>
                        </g>
                    </g>
                    <g id="编组-8备份-2" transform="translate(206.000000, 217.000000)" fill="#A0A0A0" fill-rule="nonzero">
                        <path d="M24.2510795,6.83134108 C24.2510795,6.56872505 24.2462217,6.30907198 24.2350298,6.05119667 C25.3176911,5.21470687 26.2570485,4.16760076 27,2.96938429 C25.9910493,3.44012472 24.9174225,3.744694 23.8178816,3.87209602 C24.962265,3.1418773 25.8399003,1.97403105 26.2546196,0.572556273 C25.1831026,1.24638021 23.9978569,1.72810628 22.7376492,1.97911743 C21.7279019,0.787765106 20.2869571,0.0289539376 18.6939929,0.000756550563 C15.634652,-0.0516876405 13.1546228,2.62904023 13.1546228,5.98754265 C13.1546228,6.46492309 13.2027718,6.92788382 13.2983554,7.37494341 C8.69138938,7.06753748 4.60901384,4.58103087 1.8782385,0.832604417 C1.40174942,1.73067418 1.12838139,2.78024941 1.12838139,3.90503412 C1.12838139,6.03243131 2.10636273,7.92323706 3.59231331,9.03898481 C2.68262637,8.99631833 1.83047053,8.71064071 1.0830423,8.24224788 L1.0830423,8.32037099 C1.0830423,11.2936901 2.99309437,13.784888 5.52751144,14.3661198 C5.06288101,14.5031561 4.57281879,14.5744644 4.0688024,14.5718965 C3.71861576,14.5700205 3.3695669,14.5303835 3.02728917,14.4536255 C3.73152145,16.8902064 5.77825755,18.670346 8.20137477,18.7296544 C6.30494348,20.3601157 3.91602109,21.334037 1.3223584,21.3272222 C0.875158754,21.3272222 0.433245506,21.2961112 0,21.2397164 C2.45245427,22.9840537 5.36358585,24 8.49303086,24 C18.6800387,24.002518 24.2510795,14.8084386 24.2510795,6.83134108 L24.2510795,6.83134108 Z" id="路径"></path>
                    </g>
                    <path d="M270.999935,215.000765 C263.350167,214.919375 257.08387,221.340899 257,229.347948 C257.028972,235.582251 260.894593,241.086351 266.570944,242.975673 C267.270944,243.108893 267.525375,242.669232 267.525375,242.282927 L267.525375,239.845098 C263.630977,240.71103 262.803616,237.926793 262.803616,237.926793 C262.544493,237.052919 261.993305,236.305808 261.250847,235.822082 C259.978144,234.942862 261.352639,234.95615 261.352639,234.95615 C262.244122,235.080936 263.031921,235.625784 263.490815,236.434929 C264.312602,237.926217 266.124241,238.453505 267.563713,237.620556 C267.634731,236.891146 267.950296,236.211576 268.454495,235.702251 C265.349056,235.342421 262.090977,234.116896 262.090977,228.615236 C262.063068,227.180257 262.569646,225.790145 263.503648,224.738695 C263.078375,223.506487 263.12859,222.149476 263.643648,220.95534 C264.158796,219.76134 264.827329,220.569001 267.461727,222.420729 C269.755029,221.781184 272.16849,221.781184 274.461792,222.420729 C277.134463,220.569001 278.280032,220.95534 278.280032,220.95534 C278.795082,222.14949 278.845297,223.506508 278.420032,224.738729 C279.375635,225.77095 279.909647,227.151683 279.908991,228.588558 C279.908991,234.103641 276.62544,235.315946 273.545472,235.675573 C274.228412,236.369722 274.578566,237.34711 274.499935,238.339776 L274.499935,242.269707 C274.499935,242.735876 274.754528,243.108893 275.45456,242.962249 C281.113866,241.061538 284.965032,235.568828 285,229.347948 C284.916097,221.340899 278.649866,214.919375 270.999935,215.000765" id="路径" fill="#A0A0A0" fill-rule="nonzero"></path>
                </g>
            </g>
            <g id="footer" transform="translate(0.000000, 2954.000000)">
                <g>
                    <rect id="矩形" fill="#252222" x="0" y="0" width="1440" height="301"></rect>
                    <path d="M270.999935,215.000765 C263.350167,214.919375 257.08387,221.340899 257,229.347948 C257.028972,235.582251 260.894593,241.086351 266.570944,242.975673 C267.270944,243.108893 267.525375,242.669232 267.525375,242.282927 L267.525375,239.845098 C263.630977,240.71103 262.803616,237.926793 262.803616,237.926793 C262.544493,237.052919 261.993305,236.305808 261.250847,235.822082 C259.978144,234.942862 261.352639,234.95615 261.352639,234.95615 C262.244122,235.080936 263.031921,235.625784 263.490815,236.434929 C264.312602,237.926217 266.124241,238.453505 267.563713,237.620556 C267.634731,236.891146 267.950296,236.211576 268.454495,235.702251 C265.349056,235.342421 262.090977,234.116896 262.090977,228.615236 C262.063068,227.180257 262.569646,225.790145 263.503648,224.738695 C263.078375,223.506487 263.12859,222.149476 263.643648,220.95534 C264.158796,219.76134 264.827329,220.569001 267.461727,222.420729 C269.755029,221.781184 272.16849,221.781184 274.461792,222.420729 C277.134463,220.569001 278.280032,220.95534 278.280032,220.95534 C278.795082,222.14949 278.845297,223.506508 278.420032,224.738729 C279.375635,225.77095 279.909647,227.151683 279.908991,228.588558 C279.908991,234.103641 276.62544,235.315946 273.545472,235.675573 C274.228412,236.369722 274.578566,237.34711 274.499935,238.339776 L274.499935,242.269707 C274.499935,242.735876 274.754528,243.108893 275.45456,242.962249 C281.113866,241.061538 284.965032,235.568828 285,229.347948 C284.916097,221.340899 278.649866,214.919375 270.999935,215.000765" id="路径" fill="#A0A0A0" fill-rule="nonzero"></path>
                </g>
            </g>
        </g>
    </g>
</svg>