<?xml version="1.0" encoding="UTF-8"?>
<svg width="89px" height="40px" viewBox="0 0 89 40" version="1.1" xmlns="http://www.w3.org/2000/svg" xmlns:xlink="http://www.w3.org/1999/xlink">
    <!-- Generator: Sketch 61.2 (89653) - https://sketch.com -->
    <title>logo</title>
    <desc>Created with Sketch.</desc>
    <defs>
        <polygon id="path-1" points="0 0.4264 15.80304 0.4264 15.80304 32.8 0 32.8"></polygon>
        <polygon id="path-3" points="0.181278687 0.0432 14.76928 0.0432 14.76928 14.61096 0.181278687 14.61096"></polygon>
        <polygon id="path-5" points="0.46888 0.25552 24.044 0.25552 24.044 24.21552 0.46888 24.21552"></polygon>
    </defs>
    <g id="页面-1" stroke="none" stroke-width="1" fill="none" fill-rule="evenodd">
        <g id="首页-未登录" transform="translate(-117.000000, -16.000000)">
            <g id="nav">
                <g id="logo" transform="translate(117.000000, 16.000000)">
                    <g id="编组" transform="translate(0.000000, 7.157040)">
                        <mask id="mask-2" fill="white">
                            <use xlink:href="#path-1"></use>
                        </mask>
                        <g id="Clip-2"></g>
                        <path d="M1.60624,32.8 L-0.00016,30.2664 L12.70704,22.2064 L12.80304,0.4264 L15.80304,0.44 L15.70304,23.04 C15.70064,23.5512 15.43824,24.0264 15.00624,24.3 L1.60624,32.8 Z" id="Fill-1" fill="#000000" mask="url(#mask-2)"></path>
                    </g>
                    <g id="编组" transform="translate(18.400000, 0.757040)">
                        <mask id="mask-4" fill="white">
                            <use xlink:href="#path-3"></use>
                        </mask>
                        <g id="Clip-4"></g>
                        <path d="M1.68127869,14.61096 C1.48688,14.61096 1.29168,14.57336 1.10528,14.49576 C0.54528,14.26296 0.18048,13.71496 0.181278687,13.10856 L0.19248,6.98536 L3.19248,6.99096 L3.18768,9.48776 L12.65088,0.04296 L14.76928,2.16616 L2.74048,14.17256 C2.45408,14.45896 2.07088,14.61096 1.68127869,14.61096" id="Fill-3" fill="#0FC700" mask="url(#mask-4)"></path>
                    </g>
                    <path d="M31.0508,36.57032 L21.5876,27.12552 L21.5924,29.62232 L18.5924,29.62792 L18.5811987,23.50472 C18.5804,22.89832 18.9452,22.35032 19.5052,22.11752 C20.0644,21.88472 20.7108,22.01112 21.1404,22.44072 L33.1692,34.44712 L31.0508,36.57032 Z" id="Fill-5" fill="#000000"></path>
                    <path d="M1.9328,32.5008 L0.4736,29.88 L7.0032,26.2456 L7.0032,7.5904 L10.0032,7.5904 L10.0032,27.128 C10.0032,27.672 9.7088,28.1736 9.2328,28.4384 L1.9328,32.5008 Z" id="Fill-7" fill="#000000"></path>
                    <path d="M27.82032,25.8324 L22.14992,19.8956 C21.58672,19.3068 21.59792,18.3756 22.17312,17.7988 L27.84352,12.1284 L29.96592,14.2492 L25.33152,18.8836 L29.98912,23.7604 L27.82032,25.8324 Z" id="Fill-9" fill="#000000"></path>
                    <path d="M59.81408,16.20512 L57.81328,16.20512 C57.07408,16.20512 56.53088,15.51552 56.71328,14.79952 C57.08128,13.35552 57.48688,11.53072 57.91968,9.34512 C57.91968,9.34512 53.49168,9.34512 53.49168,9.34512 L53.49168,11.41872 C53.49168,11.85392 53.46528,12.28832 53.46528,12.74992 L53.46528,12.74992 C54.08048,16.20512 55.38608,19.22592 57.38208,21.83712 L57.38288,21.83712 C58.53408,20.14752 59.35328,18.27872 59.81408,16.20512 L59.81408,16.20512 Z M48.26928,9.34512 L48.26928,6.78512 L59.57568,6.78512 C60.20208,6.78512 60.71008,7.29312 60.71008,7.91952 L60.71008,8.50032 C60.30048,10.54832 59.89088,12.34032 59.48128,13.87632 C59.48128,13.87552 60.49568,13.87552 61.34368,13.87552 C61.97008,13.87552 62.47648,14.38352 62.47648,15.00992 L62.47648,15.36032 C61.93888,18.76512 60.86368,21.63232 59.25088,23.96112 C60.50528,25.18992 61.96448,26.31632 63.62848,27.31472 L61.91328,29.61872 C60.24928,28.54352 58.79008,27.34032 57.56208,26.00912 C56.07648,27.51952 54.28528,28.74832 52.23648,29.69552 L50.75248,27.26352 C52.72368,26.29072 54.38768,25.13872 55.74368,23.78272 C54.59328,22.19632 53.67168,20.45712 52.98128,18.56512 L52.97888,18.56512 C52.19488,23.71712 50.52128,27.61312 47.99328,30.28672 C46.71008,29.12112 47.25888,29.61872 45.97568,28.45312 L46.55488,27.74992 C49.37008,24.34512 50.80368,18.89312 50.85488,11.41872 L50.85488,9.34512 L48.26928,9.34512 Z M46.22208,29.61872 L43.53328,29.61872 L43.53328,18.07392 C42.79168,20.22432 41.86928,22.19552 40.79488,23.98752 L39.61728,21.01792 C41.30688,18.76512 42.56128,16.20512 43.32928,13.31232 L40.10368,13.31232 L40.10368,10.72752 L43.53328,10.72752 L43.53328,6.01712 L46.22208,6.01712 L46.22208,10.72752 L48.98608,10.72752 L48.98608,13.31232 L46.22208,13.31232 L46.22208,14.41312 C47.34768,15.53952 48.44848,16.74272 49.54928,18.04832 C49.54928,18.04912 47.98768,20.40352 47.98768,20.40352 C47.32208,19.27712 46.73328,18.30432 46.22208,17.51072 L46.22208,29.61872 Z" id="Fill-11" fill="#000000"></path>
                    <g id="编组" transform="translate(64.800000, 5.557040)">
                        <mask id="mask-6" fill="white">
                            <use xlink:href="#path-5"></use>
                        </mask>
                        <g id="Clip-14"></g>
                        <path d="M16.26248,8.70272 L9.30008,8.70272 C10.40088,9.52192 11.57848,10.21312 12.83208,10.82752 C14.21448,10.16192 15.36648,9.47072 16.26248,8.70272 L16.26248,8.70272 Z M17.59368,20.88752 L17.59368,19.30752 C17.59368,18.68192 17.08568,18.17392 16.45928,18.17392 L7.58408,18.17392 L7.58408,20.88752 L17.59368,20.88752 Z M20.20488,24.21552 L17.59368,24.21552 L17.59368,23.29392 L7.58408,23.29392 L7.58408,24.21552 L4.99928,24.21552 L4.99928,15.79312 L17.93688,15.79312 C19.18888,15.79312 20.20488,16.80912 20.20488,18.06112 L20.20488,24.21552 Z M23.09688,7.39712 L20.38328,7.39712 L20.38328,5.58752 C20.38328,4.96112 19.87688,4.45312 19.24968,4.45312 L5.15928,4.45312 L5.15928,7.39712 L2.44568,7.39712 L2.44568,2.07232 L10.70808,2.07232 C10.45128,1.58592 10.19528,1.12592 9.91368,0.71632 L12.88328,0.25552 C13.14008,0.81872 13.36968,1.40672 13.60008,2.07232 L20.82968,2.07232 C22.08168,2.07232 23.09688,3.08832 23.09688,4.34032 L23.09688,7.39712 Z M11.29608,5.22112 C11.01448,5.65632 10.73368,6.06592 10.45128,6.44992 L18.35368,6.44992 C18.98008,6.44992 19.48728,6.95792 19.48728,7.58432 L19.48728,8.57472 C18.61688,9.82912 17.36328,10.95552 15.67368,11.97952 C18.18168,12.79872 20.97288,13.31072 24.04488,13.46432 L23.42968,15.86992 C19.38488,15.63952 15.82728,14.82032 12.75528,13.41312 C9.78568,14.64112 6.04808,15.61392 1.49208,16.35632 L0.46888,13.97552 C4.23128,13.43792 7.40568,12.74752 9.99048,11.92832 C9.01768,11.31392 8.12168,10.64832 7.30328,9.93152 C6.35608,10.72512 5.38328,11.44192 4.38488,12.08192 L2.69528,10.03392 C4.97368,8.75392 6.97048,6.96192 8.68488,4.63232 L11.29608,5.22112 Z" id="Fill-13" fill="#000000" mask="url(#mask-6)"></path>
                    </g>
                    <path d="M43.52656,31.90864 L45.18416,31.90864 L45.18416,35.99024 C45.18416,37.92304 44.24336,38.47264 42.88416,38.47264 C42.55056,38.47264 42.14176,38.42464 41.87216,38.33184 L42.03696,36.98384 C42.22176,37.03744 42.45136,37.07584 42.70016,37.07584 C43.17856,37.07584 43.52656,36.86624 43.52656,36.01664 L43.52656,31.90864 Z" id="Fill-15" fill="#000000"></path>
                    <polygon id="Fill-17" fill="#000000" points="46.2904 38.37544 47.9488 38.37544 47.9488 31.90904 46.2904 31.90904"></polygon>
                    <path d="M49.11248,31.90864 L50.75648,31.90864 L50.75648,34.68304 L50.77968,34.68304 C50.89648,34.43024 51.02368,34.17744 51.15408,33.92544 L52.23648,31.90864 L54.21568,31.90864 L52.36128,34.68864 L54.27568,38.37504 L52.38208,38.37504 L51.19648,35.79424 L50.75648,36.40464 L50.75648,38.37504 L49.11248,38.37504 L49.11248,31.90864 Z" id="Fill-19" fill="#000000"></path>
                    <polygon id="Fill-20" fill="#000000" points="58.54216 35.72696 56.49176 35.72696 56.49176 36.99896 58.78616 36.99896 58.78616 38.37576 54.83336 38.37576 54.83336 31.90856 58.65976 31.90856 58.65976 33.28456 56.49176 33.28456 56.49176 34.37816 58.54216 34.37816"></polygon>
                    <path d="M61.37424,34.72304 L61.74704,34.72304 C62.34784,34.72304 62.68384,34.37584 62.68384,33.89584 C62.68384,33.41504 62.40544,33.11584 61.86384,33.10624 C61.60704,33.10624 61.45184,33.12144 61.37424,33.14464 L61.37424,34.72304 Z M59.72944,31.99984 C60.20224,31.92304 60.87984,31.86464 61.64464,31.86464 C62.55104,31.86464 63.25264,31.98624 63.72784,32.36384 C64.14544,32.69824 64.33584,33.15024 64.33584,33.76624 C64.33584,34.51984 63.81824,35.11744 63.26704,35.33824 L63.26704,35.36784 C63.69344,35.55504 63.92064,35.95824 64.07024,36.54144 C64.24144,37.19424 64.44864,38.12544 64.57264,38.37504 L62.86704,38.37504 C62.77584,38.19264 62.61184,37.63664 62.45584,36.87504 C62.30384,36.10224 62.08624,35.93504 61.61344,35.93504 L61.37424,35.93504 L61.37424,38.37504 L59.72944,38.37504 L59.72944,31.99984 Z" id="Fill-21" fill="#000000"></path>
                    <path d="M65.19064,37.48208 C65.19064,36.90048 65.59864,36.48768 66.13624,36.48768 C66.67704,36.48768 67.07144,36.87808 67.07624,37.48208 C67.07624,38.06768 66.69624,38.47248 66.13144,38.47248 C65.58984,38.47248 65.19064,38.06768 65.19064,37.48208" id="Fill-22" fill="#000000"></path>
                    <path d="M72.28128,38.2336 C72.05808,38.3408 71.52208,38.4632 70.84448,38.4632 C68.60288,38.4632 67.63808,36.9568 67.63808,35.248 C67.63808,32.9336 69.22608,31.8208 70.98128,31.8208 C71.64288,31.8208 72.16128,31.9472 72.38688,32.0744 L72.08048,33.4016 C71.84128,33.3 71.51168,33.2016 71.07568,33.2016 C70.16048,33.2016 69.38768,33.7912 69.38768,35.1504 C69.38768,36.3768 70.03648,37.0632 71.09248,37.0632 C71.44048,37.0632 71.84128,36.9944 72.07568,36.9112 L72.28128,38.2336 Z" id="Fill-23" fill="#000000"></path>
                    <path d="M74.34768,35.14688 C74.34768,36.45568 74.80208,37.12608 75.49408,37.12608 C76.20368,37.12608 76.60208,36.32848 76.60208,35.11488 C76.60208,34.00208 76.20688,33.15808 75.48448,33.15808 C74.80208,33.15808 74.34768,33.88848 74.34768,35.14688 M78.34848,35.05328 C78.34848,37.24368 77.20848,38.47248 75.42048,38.47248 C73.52768,38.47248 72.60128,36.90128 72.60128,35.16288 C72.60128,33.36448 73.66528,31.81168 75.52208,31.81168 C77.50448,31.81168 78.34848,33.47248 78.34848,35.05328" id="Fill-24" fill="#000000"></path>
                    <path d="M84.24768,36.14496 C84.22448,35.47616 84.20048,34.63776 84.20528,33.72496 L84.18128,33.72496 C84.01008,34.53216 83.76608,35.44896 83.59488,36.06416 L83.00848,38.24096 L81.73728,38.24096 L81.22528,36.06896 C81.08368,35.46416 80.89568,34.55216 80.76368,33.72496 L80.74448,33.72496 C80.71008,34.56736 80.67248,35.47616 80.64368,36.14496 L80.54288,38.37536 L79.05008,38.37536 L79.47808,31.90896 L81.57648,31.90896 L81.99888,33.74896 C82.17248,34.49456 82.35568,35.31856 82.48128,36.09376 L82.51008,36.09376 C82.66288,35.32816 82.85728,34.45536 83.03488,33.73936 L83.49808,31.90896 L85.55728,31.90896 L85.90448,38.37536 L84.33248,38.37536 L84.24768,36.14496 Z" id="Fill-25" fill="#000000"></path>
                </g>
            </g>
        </g>
    </g>
</svg>