<?xml version="1.0" encoding="UTF-8"?>
<svg width="156px" height="69px" viewBox="0 0 156 69" version="1.1" xmlns="http://www.w3.org/2000/svg" xmlns:xlink="http://www.w3.org/1999/xlink">
    <!-- Generator: Sketch 61.2 (89653) - https://sketch.com -->
    <title>logo</title>
    <desc>Created with Sketch.</desc>
    <defs>
        <polygon id="path-1" points="0 0.7462 27.65532 0.7462 27.65532 57.4 0 57.4"></polygon>
        <polygon id="path-3" points="0.317237702 0.0756 25.84484 0.0756 25.84484 25.56918 0.317237702 25.56918"></polygon>
        <polygon id="path-5" points="0.81914 0.44716 42.077 0.44716 42.077 42.37716 0.81914 42.37716"></polygon>
        <polygon id="path-7" points="0 68.92482 155.477 68.92482 155.477 0.40042 0 0.40042"></polygon>
    </defs>
    <g id="页面-1" stroke="none" stroke-width="1" fill="none" fill-rule="evenodd">
        <g id="首页-未登录" transform="translate(-101.000000, -2809.000000)">
            <g id="footer" transform="translate(0.000000, 2764.000000)">
                <g id="logo">
                    <g transform="translate(101.000000, 45.000000)">
                        <g id="编组" transform="translate(0.000000, 11.524820)">
                            <mask id="mask-2" fill="white">
                                <use xlink:href="#path-1"></use>
                            </mask>
                            <g id="Clip-2"></g>
                            <path d="M2.81092,57.4 L-0.00028,52.9662 L22.23732,38.8612 L22.40532,0.7462 L27.65532,0.77 L27.48032,40.32 C27.47612,41.2146 27.01692,42.0462 26.26092,42.525 L2.81092,57.4 Z" id="Fill-1" fill="#FFFFFF" mask="url(#mask-2)"></path>
                        </g>
                        <g id="编组" transform="translate(32.200000, 0.324820)">
                            <mask id="mask-4" fill="white">
                                <use xlink:href="#path-3"></use>
                            </mask>
                            <g id="Clip-4"></g>
                            <path d="M2.94224,25.56918 C2.60204,25.56918 2.26044,25.50338 1.93424,25.36758 C0.95424,24.96018 0.31584,24.00118 0.317237702,22.93998 L0.33544,12.22578 L5.58544,12.23418 L5.57844,16.60498 L22.13764,0.07518 L25.84484,3.79078 L4.79584,24.80198 C4.29464,25.30318 3.62404,25.56918 2.94224,25.56918" id="Fill-3" fill="#0FC700" mask="url(#mask-4)"></path>
                        </g>
                        <path d="M54.3375,62.99806 L37.7783,46.46826 L37.7853,50.83906 L32.5353,50.84746 L32.5170977,40.13326 C32.5157,39.07206 33.1541,38.11306 34.1341,37.70566 C35.1141,37.29826 36.2439,37.52086 36.9957,38.27126 L58.0447,59.28246 L54.3375,62.99806 Z" id="Fill-5" fill="#FFFFFF"></path>
                        <path d="M3.3824,55.8764 L0.8288,51.29 L12.2556,44.9298 L12.2556,12.2832 L17.5056,12.2832 L17.5056,46.474 C17.5056,47.426 16.9904,48.3038 16.1574,48.7672 L3.3824,55.8764 Z" id="Fill-7" fill="#FFFFFF"></path>
                        <path d="M48.68556,44.2067 L38.76096,33.8173 C37.77536,32.7869 37.79496,31.1573 38.80156,30.1479 L48.72616,20.2247 L52.44036,23.9361 L44.33016,32.0463 L52.48096,40.5807 L48.68556,44.2067 Z" id="Fill-9" fill="#FFFFFF"></path>
                        <path d="M104.67464,27.35896 L101.17184,27.35896 C99.87824,27.35896 98.92904,26.15216 99.24684,24.89916 C99.89084,22.37216 100.60064,19.17876 101.35944,15.35396 L93.60904,15.35396 L93.60904,18.98276 C93.60904,19.74436 93.56424,20.50456 93.56424,21.31096 L93.56424,21.31236 C94.63944,27.35896 96.92424,32.64536 100.41864,37.21496 C102.43324,34.25816 103.86824,30.98776 104.67464,27.35896 L104.67464,27.35896 Z M84.46984,15.35396 L84.46984,10.87396 L104.25744,10.87396 C105.35224,10.87396 106.24124,11.76296 106.24124,12.85916 L106.24124,13.87556 C105.52444,17.45956 104.80904,20.59416 104.09224,23.28216 L107.35004,23.28216 C108.44624,23.28216 109.33244,24.17116 109.33244,25.26736 L109.33244,25.88056 C108.39164,31.83896 106.51144,36.85656 103.68904,40.93196 C105.88284,43.08236 108.43784,45.05356 111.34984,46.80076 L108.34684,50.83276 C105.43624,48.95116 102.88264,46.84556 100.73224,44.51596 C98.13384,47.15916 94.99784,49.30956 91.41384,50.96716 L88.81684,46.71116 C92.26644,45.00876 95.17704,42.99276 97.55144,40.61976 C95.53684,37.84356 93.92544,34.79996 92.71584,31.48896 L92.71164,31.48896 C91.33964,40.50496 88.41224,47.32296 83.98824,52.00176 C81.74264,49.96196 82.70164,50.83276 80.45604,48.79296 L81.46964,47.56236 C86.39624,41.60396 88.90504,32.06296 88.99604,18.98276 L88.99604,15.35396 L84.46984,15.35396 Z M80.88724,50.83276 L76.18324,50.83276 L76.18324,30.62936 C74.88404,34.39256 73.27124,37.84216 71.39104,40.97816 L69.33024,35.78136 C72.28564,31.83896 74.48224,27.35896 75.82624,22.29656 L70.18004,22.29656 L70.18004,17.77316 L76.18324,17.77316 L76.18324,9.52996 L80.88724,9.52996 L80.88724,17.77316 L85.72564,17.77316 L85.72564,22.29656 L80.88724,22.29656 L80.88724,24.22296 C82.85844,26.19416 84.78484,28.29976 86.71124,30.58456 L83.97844,34.70616 C82.81364,32.73496 81.78184,31.03256 80.88724,29.64376 L80.88724,50.83276 Z" id="Fill-11" fill="#FFFFFF"></path>
                        <g id="编组" transform="translate(113.400000, 8.724820)">
                            <mask id="mask-6" fill="white">
                                <use xlink:href="#path-5"></use>
                            </mask>
                            <g id="Clip-14"></g>
                            <path d="M28.45794,15.22976 L16.27374,15.22976 C18.20014,16.66336 20.26094,17.87296 22.45614,18.94816 C24.87394,17.78336 26.89134,16.57376 28.45794,15.22976 L28.45794,15.22976 Z M30.78754,36.55316 L30.78754,33.78816 C30.78754,32.69336 29.89854,31.80436 28.80374,31.80436 L13.27214,31.80436 L13.27214,36.55316 L30.78754,36.55316 Z M35.35714,42.37716 L30.78754,42.37716 L30.78754,40.76436 L13.27214,40.76436 L13.27214,42.37716 L8.74874,42.37716 L8.74874,27.63796 L31.38954,27.63796 C33.58054,27.63796 35.35714,29.41456 35.35714,31.60696 L35.35714,42.37716 Z M40.41954,12.94496 L35.67074,12.94496 L35.67074,9.77816 C35.67074,8.68196 34.78314,7.79296 33.68554,7.79296 L9.02734,7.79296 L9.02734,12.94496 L4.27854,12.94496 L4.27854,3.62656 L18.73774,3.62656 C18.28974,2.77536 17.84174,1.97036 17.34894,1.25356 L22.54434,0.44716 C22.99374,1.43276 23.39694,2.46176 23.80014,3.62656 L36.45054,3.62656 C38.64154,3.62656 40.41954,5.40316 40.41954,7.59556 L40.41954,12.94496 Z M19.76814,9.13696 C19.27394,9.89856 18.78254,10.61536 18.28974,11.28736 L32.11754,11.28736 C33.21374,11.28736 34.10274,12.17636 34.10274,13.27256 L34.10274,15.00576 C32.57954,17.20096 30.38434,19.17216 27.42894,20.96416 C31.81794,22.39776 36.70114,23.29376 42.07714,23.56256 L41.00194,27.77236 C33.92354,27.36916 27.69634,25.93556 22.32174,23.47296 C17.12494,25.62196 10.58414,27.32436 2.61114,28.62356 L0.81914,24.45716 C7.40474,23.51636 12.95994,22.30816 17.48334,20.87456 C15.78094,19.79936 14.21294,18.63456 12.77934,17.38016 C11.12174,18.76896 9.41934,20.02336 7.67214,21.14336 L4.71674,17.55936 C8.70394,15.31936 12.19834,12.18336 15.19854,8.10656 L19.76814,9.13696 Z" id="Fill-13" fill="#FFFFFF" mask="url(#mask-6)"></path>
                        </g>
                        <path d="M76.17008,54.84012 L79.07228,54.84012 L79.07228,61.98292 C79.07228,65.36532 77.42588,66.32712 75.04588,66.32712 C74.46348,66.32712 73.74808,66.24312 73.27488,66.08072 L73.56328,63.72172 C73.88668,63.81552 74.28988,63.88272 74.72528,63.88272 C75.56108,63.88272 76.17008,63.51592 76.17008,62.02912 L76.17008,54.84012 Z" id="Fill-15" fill="#FFFFFF"></path>
                        <mask id="mask-8" fill="white">
                            <use xlink:href="#path-7"></use>
                        </mask>
                        <g id="Clip-18"></g>
                        <polygon id="Fill-17" fill="#FFFFFF" mask="url(#mask-8)" points="81.0082 66.15702 83.9104 66.15702 83.9104 54.84082 81.0082 54.84082"></polygon>
                        <path d="M85.94544,54.84012 L88.82384,54.84012 L88.82384,59.69532 L88.86444,59.69532 C89.06744,59.25292 89.29004,58.81052 89.51964,58.36952 L91.41384,54.84012 L94.87604,54.84012 L91.63084,59.70512 L94.98104,66.15632 L91.66724,66.15632 L89.59244,61.63992 L88.82384,62.70812 L88.82384,66.15632 L85.94544,66.15632 L85.94544,54.84012 Z" id="Fill-19" fill="#FFFFFF" mask="url(#mask-8)"></path>
                        <polygon id="Fill-20" fill="#FFFFFF" mask="url(#mask-8)" points="102.44878 61.52218 98.86058 61.52218 98.86058 63.74818 102.87438 63.74818 102.87438 66.15758 95.95838 66.15758 95.95838 54.83998 102.65318 54.83998 102.65318 57.24798 98.86058 57.24798 98.86058 59.16178 102.44878 59.16178"></polygon>
                        <path d="M107.40352,59.76532 L108.05732,59.76532 C109.10872,59.76532 109.69532,59.15772 109.69532,58.31772 C109.69532,57.47632 109.20812,56.95272 108.26172,56.93592 C107.81092,56.93592 107.53932,56.96252 107.40352,57.00312 L107.40352,59.76532 Z M104.52652,54.99972 C105.35252,54.86532 106.53972,54.76312 107.87672,54.76312 C109.46432,54.76312 110.69072,54.97592 111.52372,55.63672 C112.25452,56.22192 112.58772,57.01292 112.58772,58.09092 C112.58772,59.40972 111.68192,60.45552 110.71592,60.84192 L110.71592,60.89372 C111.46352,61.22132 111.85972,61.92692 112.12292,62.94752 C112.42112,64.08992 112.78372,65.71952 113.00212,66.15632 L110.01732,66.15632 C109.85632,65.83712 109.57072,64.86412 109.29632,63.53132 C109.03032,62.17892 108.64952,61.88632 107.82352,61.88632 L107.40352,61.88632 L107.40352,66.15632 L104.52652,66.15632 L104.52652,54.99972 Z" id="Fill-21" fill="#FFFFFF" mask="url(#mask-8)"></path>
                        <path d="M114.08362,64.59364 C114.08362,63.57584 114.79762,62.85344 115.73702,62.85344 C116.68482,62.85344 117.37502,63.53664 117.38202,64.59364 C117.38202,65.61844 116.71702,66.32684 115.73002,66.32684 C114.78082,66.32684 114.08362,65.61844 114.08362,64.59364" id="Fill-22" fill="#FFFFFF" mask="url(#mask-8)"></path>
                        <path d="M126.49084,65.9088 C126.10164,66.0964 125.16364,66.3106 123.97784,66.3106 C120.05504,66.3106 118.36524,63.6744 118.36524,60.684 C118.36524,56.6338 121.14424,54.6864 124.21724,54.6864 C125.37504,54.6864 126.28224,54.9076 126.67564,55.1302 L126.14084,57.4528 C125.72084,57.275 125.14544,57.1028 124.38244,57.1028 C122.78084,57.1028 121.42844,58.1346 121.42844,60.5132 C121.42844,62.6594 122.56244,63.8606 124.41044,63.8606 C125.02084,63.8606 125.72224,63.7402 126.13244,63.5946 L126.49084,65.9088 Z" id="Fill-23" fill="#FFFFFF" mask="url(#mask-8)"></path>
                        <path d="M130.10704,60.50704 C130.10704,62.79744 130.90224,63.97064 132.11324,63.97064 C133.35504,63.97064 134.05224,62.57484 134.05224,60.45104 C134.05224,58.50364 133.36064,57.02664 132.09644,57.02664 C130.90224,57.02664 130.10704,58.30484 130.10704,60.50704 M137.10984,60.34324 C137.10984,64.17644 135.11484,66.32684 131.98584,66.32684 C128.67344,66.32684 127.05084,63.57724 127.05084,60.53504 C127.05084,57.38784 128.91424,54.67044 132.16364,54.67044 C135.63144,54.67044 137.10984,57.57684 137.10984,60.34324" id="Fill-24" fill="#FFFFFF" mask="url(#mask-8)"></path>
                        <path d="M147.43344,62.25368 C147.39144,61.08328 147.34944,59.61608 147.35784,58.01868 L147.31584,58.01868 C147.01624,59.43128 146.59064,61.03568 146.29104,62.11228 L145.26344,65.92168 L143.03884,65.92168 L142.14424,62.12068 C141.89504,61.06228 141.56604,59.46628 141.33644,58.01868 L141.30144,58.01868 C141.24264,59.49288 141.17684,61.08328 141.12644,62.25368 L140.95004,66.15688 L138.33624,66.15688 L139.08524,54.84068 L142.75744,54.84068 L143.49664,58.06068 C143.80044,59.36548 144.12244,60.80748 144.34224,62.16408 L144.39264,62.16408 C144.65864,60.82428 144.99884,59.29688 145.31104,58.04388 L146.12164,54.84068 L149.72384,54.84068 L150.33144,66.15688 L147.58184,66.15688 L147.43344,62.25368 Z" id="Fill-25" fill="#FFFFFF" mask="url(#mask-8)"></path>
                    </g>
                </g>
            </g>
        </g>
    </g>
</svg>