<?xml version="1.0" encoding="UTF-8"?>
<svg width="142px" height="122px" viewBox="0 0 142 122" version="1.1" xmlns="http://www.w3.org/2000/svg" xmlns:xlink="http://www.w3.org/1999/xlink">
    <title>jiker社群</title>
    <defs>
        <rect id="path-1" x="0" y="0" width="142" height="122"></rect>
        <polygon id="path-3" points="0 2.16817048 76.7511726 2.16817048 76.7511726 166.782345 0 166.782345"></polygon>
        <polygon id="path-5" points="0.880422488 0.219664552 71.7304746 0.219664552 71.7304746 74.2942125 0.880422488 74.2942125"></polygon>
        <polygon id="path-7" points="0 0.289804966 9.88818789 0.289804966 9.88818789 22.2926897 0 22.2926897"></polygon>
        <polygon id="path-9" points="0.113428664 0.0293611034 9.24134949 0.0293611034 9.24134949 9.93041454 0.113428664 9.93041454"></polygon>
    </defs>
    <g id="页面-1" stroke="none" stroke-width="1" fill="none" fill-rule="evenodd">
        <g id="01-1_首页" transform="translate(-1046.000000, -530.000000)">
            <g id="jiker社群" transform="translate(1046.000000, 530.000000)">
                <mask id="mask-2" fill="white">
                    <use xlink:href="#path-1"></use>
                </mask>
                <use id="矩形备份-8" fill="#0DB300" xlink:href="#path-1"></use>
                <g id="极客logo-白" opacity="0.200000003" mask="url(#mask-2)">
                    <g transform="translate(11.000000, -15.000000)">
                        <g>
                            <g id="编组" transform="translate(0.000000, 32.542897)">
                                <mask id="mask-4" fill="white">
                                    <use xlink:href="#path-3"></use>
                                </mask>
                                <g id="Clip-2"></g>
                                <path d="M7.80108153,166.782345 L-0.000777077551,153.899426 L61.714722,112.915715 L62.1809686,2.16817048 L76.7511726,2.23732414 L76.2654992,117.154428 C76.253843,119.753791 74.9794358,122.170102 72.8813264,123.56131 L7.80108153,166.782345 Z" id="Fill-1" fill="#FFFFFF" mask="url(#mask-4)"></path>
                            </g>
                            <g id="编组" transform="translate(89.363918, -0.000000)">
                                <mask id="mask-6" fill="white">
                                    <use xlink:href="#path-5"></use>
                                </mask>
                                <g id="Clip-4"></g>
                                <path d="M8.16553091,74.2942125 C7.22138168,74.2942125 6.27334707,74.103023 5.36805172,73.7084403 C2.64828029,72.5246925 0.876543478,69.738207 0.880422488,66.6547675 L0.934824294,35.5193512 L15.5050284,35.5478263 L15.481716,48.2436238 L61.4419678,0.218444193 L71.7304746,11.0145501 L13.3097843,72.0650241 C11.9188155,73.5213187 10.0577147,74.2942125 8.16553091,74.2942125" id="Fill-3" fill="#FFFFFF" opacity="0.5" mask="url(#mask-6)"></path>
                            </g>
                            <path d="M150.805498,182.104354 L104.845246,134.079175 L104.868558,146.774972 L90.2983541,146.803447 L90.2439523,115.668031 C90.2400733,112.584591 92.0118101,109.798106 94.7315816,108.614358 C97.4474676,107.43061 100.586861,108.073332 102.673314,110.257774 L161.094004,171.308248 L150.805498,182.104354 Z" id="Fill-5" fill="#FFFFFF"></path>
                            <path d="M9.38709682,161.411547 L2.30014955,148.08523 L34.0126844,129.604933 L34.0126844,34.7464574 L48.5828885,34.7464574 L48.5828885,134.091785 C48.5828885,136.857931 47.1530658,139.408481 44.8412601,140.754943 L9.38709682,161.411547 Z" id="Fill-7" fill="#FFFFFF"></path>
                            <path d="M135.115913,127.503882 L107.576285,97.3162778 C104.840972,94.3223314 104.895367,89.5873399 107.688961,86.6544114 L135.22859,57.821405 L145.536523,68.6053074 L123.028472,92.1704323 L145.6492,116.96812 L135.115913,127.503882 Z" id="Fill-9" fill="#FFFFFF"></path>
                        </g>
                    </g>
                </g>
                <rect id="矩形" fill="#0FC700" style="mix-blend-mode: multiply;" mask="url(#mask-2)" x="42" y="64" width="59" height="17" rx="8.5"></rect>
                <text id="戳此扫码" mask="url(#mask-2)" font-family="PingFangSC-Semibold, PingFang SC" font-size="11" font-weight="500" fill="#FFFFFF">
                    <tspan x="49.5" y="76">戳此扫码</tspan>
                </text>
                <text id="Being-a-Jiker" mask="url(#mask-2)" font-family="FZDESHS_513B--GB1-0, FZDeSaiHeiS" font-size="12" font-weight="600" fill="#FFFFFF">
                    <tspan x="38" y="93">Being a Jiker</tspan>
                </text>
                <text id="极客社群" mask="url(#mask-2)" font-family="AlibabaPuHuiTi-Bold, Alibaba PuHuiTi" font-size="18" font-weight="bold" fill="#FFFFFF">
                    <tspan x="49" y="54">极客社群</tspan>
                </text>
                <g id="极客logo-白" mask="url(#mask-2)">
                    <g transform="translate(22.000000, 34.000000)">
                        <g>
                            <g id="编组" transform="translate(0.000000, 4.349793)">
                                <mask id="mask-8" fill="white">
                                    <use xlink:href="#path-7"></use>
                                </mask>
                                <g id="Clip-2"></g>
                                <path d="M1.00504731,22.2926897 L-0.000100114286,20.5707153 L7.95097646,15.0926946 L8.01104503,0.289804966 L9.88818789,0.299048276 L9.82561646,15.6592552 C9.82411474,16.0066949 9.65992731,16.329667 9.38961874,16.5156207 L1.00504731,22.2926897 Z" id="Fill-1" fill="#FFFFFF" mask="url(#mask-8)"></path>
                            </g>
                            <g id="编组" transform="translate(11.513143, -0.000000)">
                                <mask id="mask-10" fill="white">
                                    <use xlink:href="#path-9"></use>
                                </mask>
                                <g id="Clip-4"></g>
                                <path d="M1.05200091,9.93041454 C0.930362057,9.93041454 0.808222629,9.9048595 0.691589486,9.85211826 C0.341189486,9.69389454 0.112928914,9.3214435 0.113428664,8.90930061 L0.120437486,4.74763606 L1.99758034,4.75144212 L1.99457691,6.44840516 L7.91583634,0.0291979862 L9.24134949,1.47224185 L1.71475749,9.63245371 C1.53555291,9.82710695 1.2957792,9.93041454 1.05200091,9.93041454" id="Fill-3" fill="#FFFFFF" opacity="0.5" mask="url(#mask-10)"></path>
                            </g>
                            <path d="M19.4289291,24.340681 L13.5076697,17.9214738 L13.5106731,19.6184369 L11.6335303,19.6222429 L11.6265215,15.4605784 C11.6260217,15.0484355 11.8542823,14.6759844 12.2046823,14.5177607 C12.5545817,14.359537 12.9590434,14.4454454 13.2278503,14.7374253 L20.7544423,22.8976371 L19.4289291,24.340681 Z" id="Fill-5" fill="#FFFFFF"></path>
                            <path d="M1.20938057,21.5748107 L0.296338286,19.7935704 L4.38200229,17.3234316 L4.38200229,4.64432847 L6.25914514,4.64432847 L6.25914514,17.9231594 C6.25914514,18.2928918 6.07493486,18.6338068 5.77709486,18.8137795 L1.20938057,21.5748107 Z" id="Fill-7" fill="#FFFFFF"></path>
                            <path d="M17.4075717,17.0425981 L13.8595214,13.0076213 C13.5071191,12.6074403 13.5141271,11.9745454 13.8740379,11.5825203 L17.4220882,7.72860364 L18.7501042,9.17001633 L15.8502939,12.3198103 L18.7646208,15.6343526 L17.4075717,17.0425981 Z" id="Fill-9" fill="#FFFFFF"></path>
                        </g>
                    </g>
                </g>
            </g>
        </g>
    </g>
</svg>