<?xml version="1.0" encoding="UTF-8"?>
<svg width="18px" height="14px" viewBox="0 0 18 14" version="1.1" xmlns="http://www.w3.org/2000/svg" xmlns:xlink="http://www.w3.org/1999/xlink">
    <title>毕业</title>
    <g id="页面-1" stroke="none" stroke-width="1" fill="none" fill-rule="evenodd">
        <g id="首页-已登录" transform="translate(-1153.000000, -4203.000000)" fill="#ADADAD" fill-rule="nonzero">
            <g id="毕业" transform="translate(1153.000000, 4203.000000)">
                <path d="M14.693388,7.37099586 L14.693388,10.4472329 L14.693388,10.4472324 C14.6893212,10.7420441 14.5680905,11.0252803 14.3525957,11.2434349 L14.3525957,11.2434349 C12.9715659,12.5310965 11.0750101,13.2380316 9.10963838,13.1977503 L9.10963852,13.1977503 C7.1428209,13.2453026 5.2432442,12.5372358 3.86668118,11.2434349 L3.86668121,11.243435 C3.65118747,11.0252804 3.52995637,10.7420441 3.52588898,10.4472324 L3.52588898,7.35893167 L8.11347665,9.0719735 L8.11347696,9.07197361 C8.42736831,9.18252305 8.76044561,9.23974672 9.09653146,9.24086487 L9.09653149,9.24086487 C9.43686291,9.23961752 9.77421649,9.18242183 10.0926934,9.07197342 L14.693388,7.37099586 Z M17.1706853,2.8953725 L9.64704153,0.0845362569 L9.64704152,0.0845362536 C9.48855818,0.0268528499 9.31937307,-0.00183098751 9.14896057,9.05296975e-05 L9.1489606,9.05297653e-05 C8.98295117,-0.000281212375 8.81837576,0.0283753234 8.66398705,0.0845360652 L1.12723588,2.90743598 L1.12723597,2.90743594 C0.457626348,3.16059216 0.137781374,3.86541613 0.412840023,4.48170593 C0.545942326,4.77993128 0.803208918,5.01671294 1.12723597,5.13921579 L8.66398714,7.95005203 L8.66398712,7.95005202 C8.97679711,8.07856371 9.33423163,8.07856371 9.64704162,7.95005204 L17.1706854,5.1392158 L17.1706853,5.13921584 C17.8439138,4.89432701 18.1739743,4.1935029 17.9078983,3.5738824 C17.7746672,3.26362354 17.507787,3.01799392 17.1706853,2.89537232 L17.1706853,2.8953725 Z M0.655369696,11.2796266 L0.655369667,11.2796266 C0.29341924,11.2796266 0,11.0095717 0,10.6764428 C0,10.6764428 0,10.6764428 0,10.6764428 L0,6.81606682 L0,6.81606691 C0,6.48293795 0.29341924,6.21288317 0.655369667,6.21288317 C1.01732009,6.21288317 1.31073933,6.48293795 1.31073933,6.81606691 C1.31073933,6.81606691 1.31073933,6.81606691 1.31073933,6.81606691 L1.31073933,10.6764429 L1.31073933,10.6764429 C1.31073933,11.0095718 1.01732009,11.2796266 0.655369667,11.2796266 L0.655369696,11.2796266 Z" id="形状"></path>
            </g>
        </g>
    </g>
</svg>